%
M48
M72
T01C0.0157
T02C0.0197
T03C0.0394
%
T01
X3511Y4180
X3668Y4416
X3471Y4613
X3590Y4889
X3511Y5164
X3865Y4731
X4101Y4574
X4259Y4810
X4456Y4574
X4653Y4771
X4849Y4574
X9377Y4613
X9574Y4416
X9416Y4180
X9771Y4731
X10007Y4574
X10164Y4810
X10361Y4574
X10558Y4771
X10755Y4574
X9495Y4889
X9416Y5164
X9416Y10873
X9574Y11109
X9377Y11306
X9495Y11582
X9416Y11857
X9771Y11424
X10007Y11267
X10164Y11503
X10361Y11267
X10558Y11464
X10755Y11267
X15086Y11306
X15282Y11109
X15125Y10873
X15716Y11267
X15873Y11503
X16070Y11267
X16267Y11464
X16464Y11267
X15479Y11424
X15204Y11582
X15125Y11857
X20991Y11306
X21188Y11109
X21031Y10873
X21385Y11424
X21621Y11267
X21779Y11503
X21975Y11267
X22172Y11464
X22369Y11267
X21109Y11582
X21031Y11857
X21031Y17763
X21188Y17999
X20991Y18196
X21109Y18471
X21031Y18747
X21385Y18314
X21621Y18156
X21779Y18393
X21975Y18156
X22172Y18353
X22369Y18156
X26897Y18196
X27094Y17999
X26936Y17763
X27290Y18314
X27527Y18156
X27684Y18393
X27881Y18156
X28078Y18353
X28275Y18156
X27015Y18471
X26936Y18747
X26936Y24456
X27094Y24692
X26897Y24889
X27015Y25164
X26936Y25440
X27290Y25007
X27527Y24849
X27684Y25086
X27881Y24849
X28078Y25046
X28275Y24849
X32802Y24889
X32999Y24692
X32842Y24456
X33196Y25007
X33432Y24849
X33590Y25086
X33786Y24849
X33983Y25046
X34180Y24849
X32920Y25164
X32842Y25440
X32842Y18747
X32920Y18471
X32802Y18196
X32999Y17999
X32842Y17763
X33196Y18314
X33432Y18156
X33590Y18393
X33786Y18156
X33983Y18353
X34180Y18156
X32842Y11857
X32920Y11582
X32802Y11306
X32999Y11109
X32842Y10873
X33196Y11424
X33432Y11267
X33590Y11503
X33786Y11267
X33983Y11464
X34180Y11267
X32842Y5164
X32920Y4889
X32802Y4613
X32999Y4416
X32842Y4180
X33196Y4731
X33432Y4574
X33590Y4810
X33786Y4574
X33983Y4771
X34180Y4574
X28275Y4574
X28078Y4771
X27881Y4574
X27684Y4810
X27527Y4574
X27290Y4731
X27015Y4889
X26936Y5164
X26897Y4613
X27094Y4416
X26936Y4180
X22369Y4574
X22172Y4771
X21975Y4574
X21779Y4810
X21621Y4574
X21385Y4731
X21109Y4889
X21031Y5164
X20991Y4613
X21188Y4416
X21031Y4180
X16464Y4574
X16267Y4771
X16070Y4574
X15873Y4810
X15716Y4574
X15479Y4731
X15204Y4889
X15125Y5164
X15086Y4613
X15282Y4416
X15125Y4180
X4849Y11267
X4653Y11464
X4456Y11267
X4259Y11503
X4101Y11267
X3865Y11424
X3590Y11582
X3511Y11857
X3471Y11306
X3668Y11109
X3511Y10873
X3511Y17763
X3668Y17999
X3471Y18196
X3590Y18471
X3511Y18747
X3865Y18314
X4101Y18156
X4259Y18393
X4456Y18156
X4653Y18353
X4849Y18156
X9377Y18196
X9574Y17999
X9416Y17763
X9771Y18314
X10007Y18156
X10164Y18393
X10361Y18156
X10558Y18353
X10755Y18156
X9495Y18471
X9416Y18747
X15086Y18196
X15282Y17999
X15125Y17763
X15479Y18314
X15716Y18156
X15873Y18393
X16070Y18156
X16267Y18353
X16464Y18156
X15204Y18471
X15125Y18747
X15125Y24456
X15282Y24692
X15086Y24889
X15204Y25164
X15125Y25440
X15479Y25007
X15716Y24849
X15873Y25086
X16070Y24849
X16267Y25046
X16464Y24849
X20991Y24889
X21188Y24692
X21031Y24456
X21385Y25007
X21621Y24849
X21779Y25086
X21975Y24849
X22172Y25046
X22369Y24849
X21109Y25164
X21031Y25440
X10755Y24849
X10558Y25046
X10361Y24849
X10164Y25086
X10007Y24849
X9771Y25007
X9495Y25164
X9416Y25440
X9377Y24889
X9574Y24692
X9416Y24456
X4849Y24849
X4653Y25046
X4456Y24849
X4259Y25086
X4101Y24849
X3865Y25007
X3590Y25164
X3511Y25440
X3471Y24889
X3668Y24692
X3511Y24456
X26936Y11857
X27015Y11582
X26897Y11306
X27094Y11109
X26936Y10873
X27527Y11267
X27684Y11503
X27881Y11267
X28078Y11464
X28275Y11267
X27290Y11424
T02
X3983Y3471
X4338Y3471
X4692Y3471
X9889Y3471
X10243Y3471
X10597Y3471
X15597Y3471
X15952Y3471
X16306Y3471
X21503Y3471
X21857Y3471
X22212Y3471
X27408Y3471
X27763Y3471
X28117Y3471
X33314Y3471
X33668Y3471
X34023Y3471
X34023Y10164
X33668Y10164
X33314Y10164
X28117Y10164
X27763Y10164
X27408Y10164
X22212Y10164
X21857Y10164
X21503Y10164
X16306Y10164
X15952Y10164
X15597Y10164
X10597Y10164
X10243Y10164
X9889Y10164
X4692Y10164
X4338Y10164
X3983Y10164
X3983Y17054
X4338Y17054
X4692Y17054
X9889Y17054
X10243Y17054
X10597Y17054
X15597Y17054
X15952Y17054
X16306Y17054
X21503Y17054
X21857Y17054
X22212Y17054
X27408Y17054
X27763Y17054
X28117Y17054
X33314Y17054
X33668Y17054
X34023Y17054
X34023Y23747
X33668Y23747
X33314Y23747
X28117Y23747
X27763Y23747
X27408Y23747
X22212Y23747
X21857Y23747
X21503Y23747
X16306Y23747
X15952Y23747
X15597Y23747
X10597Y23747
X10243Y23747
X9889Y23747
X4692Y23747
X4338Y23747
X3983Y23747
T03
X3590Y25912
X9495Y25912
X15204Y25912
X21109Y25912
X27015Y25912
X32920Y25912
X32920Y19219
X27015Y19219
X21109Y19219
X15204Y19219
X9495Y19219
X3590Y19219
X3590Y12330
X9495Y12330
X15204Y12330
X21109Y12330
X27015Y12330
X32920Y12330
X32920Y5637
X27015Y5637
X21109Y5637
X15204Y5637
X9495Y5637
X3590Y5637
M30
