G75*
%MOIN*%
%OFA0B0*%
%FSLAX24Y24*%
%IPPOS*%
%LPD*%
%AMOC8*
5,1,8,0,0,1.08239X$1,22.5*
%
%ADD10C,0.0160*%
D10*
X003865Y004692D02*
X004259Y004692D01*
X004062Y004849D02*
X004062Y004534D01*
X004613Y004692D02*
X004928Y004692D01*
X009771Y004692D02*
X010164Y004692D01*
X009968Y004849D02*
X009968Y004534D01*
X010519Y004692D02*
X010834Y004692D01*
X015479Y004692D02*
X015873Y004692D01*
X015676Y004849D02*
X015676Y004534D01*
X016227Y004692D02*
X016542Y004692D01*
X021385Y004692D02*
X021779Y004692D01*
X021582Y004849D02*
X021582Y004534D01*
X022133Y004692D02*
X022448Y004692D01*
X027290Y004692D02*
X027684Y004692D01*
X027487Y004849D02*
X027487Y004534D01*
X028038Y004692D02*
X028353Y004692D01*
X033196Y004692D02*
X033590Y004692D01*
X033393Y004849D02*
X033393Y004534D01*
X033944Y004692D02*
X034259Y004692D01*
X033393Y011227D02*
X033393Y011542D01*
X033590Y011385D02*
X033196Y011385D01*
X033944Y011385D02*
X034259Y011385D01*
X028353Y011385D02*
X028038Y011385D01*
X027684Y011385D02*
X027290Y011385D01*
X027487Y011542D02*
X027487Y011227D01*
X022448Y011385D02*
X022133Y011385D01*
X021779Y011385D02*
X021385Y011385D01*
X021582Y011542D02*
X021582Y011227D01*
X016542Y011385D02*
X016227Y011385D01*
X015873Y011385D02*
X015479Y011385D01*
X015676Y011542D02*
X015676Y011227D01*
X010834Y011385D02*
X010519Y011385D01*
X010164Y011385D02*
X009771Y011385D01*
X009968Y011542D02*
X009968Y011227D01*
X004928Y011385D02*
X004613Y011385D01*
X004259Y011385D02*
X003865Y011385D01*
X004062Y011542D02*
X004062Y011227D01*
X004062Y018117D02*
X004062Y018432D01*
X004259Y018275D02*
X003865Y018275D01*
X004613Y018275D02*
X004928Y018275D01*
X009771Y018275D02*
X010164Y018275D01*
X009968Y018432D02*
X009968Y018117D01*
X010519Y018275D02*
X010834Y018275D01*
X015479Y018275D02*
X015873Y018275D01*
X015676Y018432D02*
X015676Y018117D01*
X016227Y018275D02*
X016542Y018275D01*
X021385Y018275D02*
X021779Y018275D01*
X021582Y018432D02*
X021582Y018117D01*
X022133Y018275D02*
X022448Y018275D01*
X027290Y018275D02*
X027684Y018275D01*
X027487Y018432D02*
X027487Y018117D01*
X028038Y018275D02*
X028353Y018275D01*
X033196Y018275D02*
X033590Y018275D01*
X033393Y018432D02*
X033393Y018117D01*
X033944Y018275D02*
X034259Y018275D01*
X033393Y024810D02*
X033393Y025125D01*
X033590Y024968D02*
X033196Y024968D01*
X033944Y024968D02*
X034259Y024968D01*
X028353Y024968D02*
X028038Y024968D01*
X027684Y024968D02*
X027290Y024968D01*
X027487Y025125D02*
X027487Y024810D01*
X022448Y024968D02*
X022133Y024968D01*
X021779Y024968D02*
X021385Y024968D01*
X021582Y025125D02*
X021582Y024810D01*
X016542Y024968D02*
X016227Y024968D01*
X015873Y024968D02*
X015479Y024968D01*
X015676Y025125D02*
X015676Y024810D01*
X010834Y024968D02*
X010519Y024968D01*
X010164Y024968D02*
X009771Y024968D01*
X009968Y025125D02*
X009968Y024810D01*
X004928Y024968D02*
X004613Y024968D01*
X004259Y024968D02*
X003865Y024968D01*
X004062Y025125D02*
X004062Y024810D01*
M02*
