G75*
%MOIN*%
%OFA0B0*%
%FSLAX24Y24*%
%IPPOS*%
%LPD*%
%AMOC8*
5,1,8,0,0,1.08239X$1,22.5*
%
%ADD10C,0.0474*%
%ADD11C,0.0050*%
%ADD12R,0.1063X0.0669*%
D10*
X003590Y005637D03*
X009495Y005637D03*
X015204Y005637D03*
X021109Y005637D03*
X027015Y005637D03*
X032920Y005637D03*
X032920Y012330D03*
X027015Y012330D03*
X021109Y012330D03*
X015204Y012330D03*
X009495Y012330D03*
X003590Y012330D03*
X003590Y019219D03*
X009495Y019219D03*
X015204Y019219D03*
X021109Y019219D03*
X027015Y019219D03*
X032920Y019219D03*
X032920Y025912D03*
X027015Y025912D03*
X021109Y025912D03*
X015204Y025912D03*
X009495Y025912D03*
X003590Y025912D03*
D11*
X003786Y025637D02*
X004023Y025637D01*
X004023Y026149D01*
X004298Y026149D01*
X004298Y025322D01*
X003786Y025322D01*
X003786Y025637D01*
X003786Y025593D02*
X004298Y025593D01*
X004298Y025545D02*
X003786Y025545D01*
X003786Y025496D02*
X004298Y025496D01*
X004298Y025448D02*
X003786Y025448D01*
X003786Y025399D02*
X004298Y025399D01*
X004298Y025351D02*
X003786Y025351D01*
X004023Y025642D02*
X004298Y025642D01*
X004298Y025690D02*
X004023Y025690D01*
X004023Y025739D02*
X004298Y025739D01*
X004298Y025787D02*
X004023Y025787D01*
X004023Y025836D02*
X004298Y025836D01*
X004298Y025884D02*
X004023Y025884D01*
X004023Y025933D02*
X004298Y025933D01*
X004298Y025981D02*
X004023Y025981D01*
X004023Y026030D02*
X004298Y026030D01*
X004298Y026078D02*
X004023Y026078D01*
X004023Y026127D02*
X004298Y026127D01*
X004534Y026127D02*
X004810Y026127D01*
X004810Y026149D02*
X004534Y026149D01*
X004534Y025322D01*
X005007Y025322D01*
X005007Y025637D01*
X004810Y025637D01*
X004810Y026149D01*
X004810Y026078D02*
X004534Y026078D01*
X004534Y026030D02*
X004810Y026030D01*
X004810Y025981D02*
X004534Y025981D01*
X004534Y025933D02*
X004810Y025933D01*
X004810Y025884D02*
X004534Y025884D01*
X004534Y025836D02*
X004810Y025836D01*
X004810Y025787D02*
X004534Y025787D01*
X004534Y025739D02*
X004810Y025739D01*
X004810Y025690D02*
X004534Y025690D01*
X004534Y025642D02*
X004810Y025642D01*
X005007Y025593D02*
X004534Y025593D01*
X004534Y025545D02*
X005007Y025545D01*
X005007Y025496D02*
X004534Y025496D01*
X004534Y025448D02*
X005007Y025448D01*
X005007Y025399D02*
X004534Y025399D01*
X004534Y025351D02*
X005007Y025351D01*
X009692Y025351D02*
X010204Y025351D01*
X010204Y025322D02*
X009692Y025322D01*
X009692Y025637D01*
X009928Y025637D01*
X009928Y026149D01*
X010204Y026149D01*
X010204Y025322D01*
X010204Y025399D02*
X009692Y025399D01*
X009692Y025448D02*
X010204Y025448D01*
X010204Y025496D02*
X009692Y025496D01*
X009692Y025545D02*
X010204Y025545D01*
X010204Y025593D02*
X009692Y025593D01*
X009928Y025642D02*
X010204Y025642D01*
X010204Y025690D02*
X009928Y025690D01*
X009928Y025739D02*
X010204Y025739D01*
X010204Y025787D02*
X009928Y025787D01*
X009928Y025836D02*
X010204Y025836D01*
X010204Y025884D02*
X009928Y025884D01*
X009928Y025933D02*
X010204Y025933D01*
X010204Y025981D02*
X009928Y025981D01*
X009928Y026030D02*
X010204Y026030D01*
X010204Y026078D02*
X009928Y026078D01*
X009928Y026127D02*
X010204Y026127D01*
X010440Y026127D02*
X010716Y026127D01*
X010716Y026149D02*
X010440Y026149D01*
X010440Y025322D01*
X010912Y025322D01*
X010912Y025637D01*
X010716Y025637D01*
X010716Y026149D01*
X010716Y026078D02*
X010440Y026078D01*
X010440Y026030D02*
X010716Y026030D01*
X010716Y025981D02*
X010440Y025981D01*
X010440Y025933D02*
X010716Y025933D01*
X010716Y025884D02*
X010440Y025884D01*
X010440Y025836D02*
X010716Y025836D01*
X010716Y025787D02*
X010440Y025787D01*
X010440Y025739D02*
X010716Y025739D01*
X010716Y025690D02*
X010440Y025690D01*
X010440Y025642D02*
X010716Y025642D01*
X010912Y025593D02*
X010440Y025593D01*
X010440Y025545D02*
X010912Y025545D01*
X010912Y025496D02*
X010440Y025496D01*
X010440Y025448D02*
X010912Y025448D01*
X010912Y025399D02*
X010440Y025399D01*
X010440Y025351D02*
X010912Y025351D01*
X015401Y025351D02*
X015912Y025351D01*
X015912Y025322D02*
X015401Y025322D01*
X015401Y025637D01*
X015637Y025637D01*
X015637Y026149D01*
X015912Y026149D01*
X015912Y025322D01*
X015912Y025399D02*
X015401Y025399D01*
X015401Y025448D02*
X015912Y025448D01*
X015912Y025496D02*
X015401Y025496D01*
X015401Y025545D02*
X015912Y025545D01*
X015912Y025593D02*
X015401Y025593D01*
X015637Y025642D02*
X015912Y025642D01*
X015912Y025690D02*
X015637Y025690D01*
X015637Y025739D02*
X015912Y025739D01*
X015912Y025787D02*
X015637Y025787D01*
X015637Y025836D02*
X015912Y025836D01*
X015912Y025884D02*
X015637Y025884D01*
X015637Y025933D02*
X015912Y025933D01*
X015912Y025981D02*
X015637Y025981D01*
X015637Y026030D02*
X015912Y026030D01*
X015912Y026078D02*
X015637Y026078D01*
X015637Y026127D02*
X015912Y026127D01*
X016149Y026127D02*
X016424Y026127D01*
X016424Y026149D02*
X016149Y026149D01*
X016149Y025322D01*
X016621Y025322D01*
X016621Y025637D01*
X016424Y025637D01*
X016424Y026149D01*
X016424Y026078D02*
X016149Y026078D01*
X016149Y026030D02*
X016424Y026030D01*
X016424Y025981D02*
X016149Y025981D01*
X016149Y025933D02*
X016424Y025933D01*
X016424Y025884D02*
X016149Y025884D01*
X016149Y025836D02*
X016424Y025836D01*
X016424Y025787D02*
X016149Y025787D01*
X016149Y025739D02*
X016424Y025739D01*
X016424Y025690D02*
X016149Y025690D01*
X016149Y025642D02*
X016424Y025642D01*
X016621Y025593D02*
X016149Y025593D01*
X016149Y025545D02*
X016621Y025545D01*
X016621Y025496D02*
X016149Y025496D01*
X016149Y025448D02*
X016621Y025448D01*
X016621Y025399D02*
X016149Y025399D01*
X016149Y025351D02*
X016621Y025351D01*
X021306Y025351D02*
X021818Y025351D01*
X021818Y025322D02*
X021306Y025322D01*
X021306Y025637D01*
X021542Y025637D01*
X021542Y026149D01*
X021818Y026149D01*
X021818Y025322D01*
X021818Y025399D02*
X021306Y025399D01*
X021306Y025448D02*
X021818Y025448D01*
X021818Y025496D02*
X021306Y025496D01*
X021306Y025545D02*
X021818Y025545D01*
X021818Y025593D02*
X021306Y025593D01*
X021542Y025642D02*
X021818Y025642D01*
X021818Y025690D02*
X021542Y025690D01*
X021542Y025739D02*
X021818Y025739D01*
X021818Y025787D02*
X021542Y025787D01*
X021542Y025836D02*
X021818Y025836D01*
X021818Y025884D02*
X021542Y025884D01*
X021542Y025933D02*
X021818Y025933D01*
X021818Y025981D02*
X021542Y025981D01*
X021542Y026030D02*
X021818Y026030D01*
X021818Y026078D02*
X021542Y026078D01*
X021542Y026127D02*
X021818Y026127D01*
X022054Y026127D02*
X022330Y026127D01*
X022330Y026149D02*
X022054Y026149D01*
X022054Y025322D01*
X022527Y025322D01*
X022527Y025637D01*
X022330Y025637D01*
X022330Y026149D01*
X022330Y026078D02*
X022054Y026078D01*
X022054Y026030D02*
X022330Y026030D01*
X022330Y025981D02*
X022054Y025981D01*
X022054Y025933D02*
X022330Y025933D01*
X022330Y025884D02*
X022054Y025884D01*
X022054Y025836D02*
X022330Y025836D01*
X022330Y025787D02*
X022054Y025787D01*
X022054Y025739D02*
X022330Y025739D01*
X022330Y025690D02*
X022054Y025690D01*
X022054Y025642D02*
X022330Y025642D01*
X022527Y025593D02*
X022054Y025593D01*
X022054Y025545D02*
X022527Y025545D01*
X022527Y025496D02*
X022054Y025496D01*
X022054Y025448D02*
X022527Y025448D01*
X022527Y025399D02*
X022054Y025399D01*
X022054Y025351D02*
X022527Y025351D01*
X027212Y025351D02*
X027723Y025351D01*
X027723Y025322D02*
X027212Y025322D01*
X027212Y025637D01*
X027448Y025637D01*
X027448Y026149D01*
X027723Y026149D01*
X027723Y025322D01*
X027723Y025399D02*
X027212Y025399D01*
X027212Y025448D02*
X027723Y025448D01*
X027723Y025496D02*
X027212Y025496D01*
X027212Y025545D02*
X027723Y025545D01*
X027723Y025593D02*
X027212Y025593D01*
X027448Y025642D02*
X027723Y025642D01*
X027723Y025690D02*
X027448Y025690D01*
X027448Y025739D02*
X027723Y025739D01*
X027723Y025787D02*
X027448Y025787D01*
X027448Y025836D02*
X027723Y025836D01*
X027723Y025884D02*
X027448Y025884D01*
X027448Y025933D02*
X027723Y025933D01*
X027723Y025981D02*
X027448Y025981D01*
X027448Y026030D02*
X027723Y026030D01*
X027723Y026078D02*
X027448Y026078D01*
X027448Y026127D02*
X027723Y026127D01*
X027960Y026127D02*
X028235Y026127D01*
X028235Y026149D02*
X027960Y026149D01*
X027960Y025322D01*
X028432Y025322D01*
X028432Y025637D01*
X028235Y025637D01*
X028235Y026149D01*
X028235Y026078D02*
X027960Y026078D01*
X027960Y026030D02*
X028235Y026030D01*
X028235Y025981D02*
X027960Y025981D01*
X027960Y025933D02*
X028235Y025933D01*
X028235Y025884D02*
X027960Y025884D01*
X027960Y025836D02*
X028235Y025836D01*
X028235Y025787D02*
X027960Y025787D01*
X027960Y025739D02*
X028235Y025739D01*
X028235Y025690D02*
X027960Y025690D01*
X027960Y025642D02*
X028235Y025642D01*
X028432Y025593D02*
X027960Y025593D01*
X027960Y025545D02*
X028432Y025545D01*
X028432Y025496D02*
X027960Y025496D01*
X027960Y025448D02*
X028432Y025448D01*
X028432Y025399D02*
X027960Y025399D01*
X027960Y025351D02*
X028432Y025351D01*
X033117Y025351D02*
X033629Y025351D01*
X033629Y025322D02*
X033117Y025322D01*
X033117Y025637D01*
X033353Y025637D01*
X033353Y026149D01*
X033629Y026149D01*
X033629Y025322D01*
X033629Y025399D02*
X033117Y025399D01*
X033117Y025448D02*
X033629Y025448D01*
X033629Y025496D02*
X033117Y025496D01*
X033117Y025545D02*
X033629Y025545D01*
X033629Y025593D02*
X033117Y025593D01*
X033353Y025642D02*
X033629Y025642D01*
X033629Y025690D02*
X033353Y025690D01*
X033353Y025739D02*
X033629Y025739D01*
X033629Y025787D02*
X033353Y025787D01*
X033353Y025836D02*
X033629Y025836D01*
X033629Y025884D02*
X033353Y025884D01*
X033353Y025933D02*
X033629Y025933D01*
X033629Y025981D02*
X033353Y025981D01*
X033353Y026030D02*
X033629Y026030D01*
X033629Y026078D02*
X033353Y026078D01*
X033353Y026127D02*
X033629Y026127D01*
X033865Y026127D02*
X034141Y026127D01*
X034141Y026149D02*
X033865Y026149D01*
X033865Y025322D01*
X034338Y025322D01*
X034338Y025637D01*
X034141Y025637D01*
X034141Y026149D01*
X034141Y026078D02*
X033865Y026078D01*
X033865Y026030D02*
X034141Y026030D01*
X034141Y025981D02*
X033865Y025981D01*
X033865Y025933D02*
X034141Y025933D01*
X034141Y025884D02*
X033865Y025884D01*
X033865Y025836D02*
X034141Y025836D01*
X034141Y025787D02*
X033865Y025787D01*
X033865Y025739D02*
X034141Y025739D01*
X034141Y025690D02*
X033865Y025690D01*
X033865Y025642D02*
X034141Y025642D01*
X034338Y025593D02*
X033865Y025593D01*
X033865Y025545D02*
X034338Y025545D01*
X034338Y025496D02*
X033865Y025496D01*
X033865Y025448D02*
X034338Y025448D01*
X034338Y025399D02*
X033865Y025399D01*
X033865Y025351D02*
X034338Y025351D01*
X034141Y019456D02*
X033865Y019456D01*
X033865Y018629D01*
X034338Y018629D01*
X034338Y018944D01*
X034141Y018944D01*
X034141Y019456D01*
X034141Y019434D02*
X033865Y019434D01*
X033865Y019385D02*
X034141Y019385D01*
X034141Y019337D02*
X033865Y019337D01*
X033865Y019288D02*
X034141Y019288D01*
X034141Y019240D02*
X033865Y019240D01*
X033865Y019191D02*
X034141Y019191D01*
X034141Y019143D02*
X033865Y019143D01*
X033865Y019094D02*
X034141Y019094D01*
X034141Y019046D02*
X033865Y019046D01*
X033865Y018997D02*
X034141Y018997D01*
X034141Y018949D02*
X033865Y018949D01*
X033865Y018900D02*
X034338Y018900D01*
X034338Y018852D02*
X033865Y018852D01*
X033865Y018803D02*
X034338Y018803D01*
X034338Y018755D02*
X033865Y018755D01*
X033865Y018706D02*
X034338Y018706D01*
X034338Y018658D02*
X033865Y018658D01*
X033629Y018658D02*
X033117Y018658D01*
X033117Y018629D02*
X033117Y018944D01*
X033353Y018944D01*
X033353Y019456D01*
X033629Y019456D01*
X033629Y018629D01*
X033117Y018629D01*
X033117Y018706D02*
X033629Y018706D01*
X033629Y018755D02*
X033117Y018755D01*
X033117Y018803D02*
X033629Y018803D01*
X033629Y018852D02*
X033117Y018852D01*
X033117Y018900D02*
X033629Y018900D01*
X033629Y018949D02*
X033353Y018949D01*
X033353Y018997D02*
X033629Y018997D01*
X033629Y019046D02*
X033353Y019046D01*
X033353Y019094D02*
X033629Y019094D01*
X033629Y019143D02*
X033353Y019143D01*
X033353Y019191D02*
X033629Y019191D01*
X033629Y019240D02*
X033353Y019240D01*
X033353Y019288D02*
X033629Y019288D01*
X033629Y019337D02*
X033353Y019337D01*
X033353Y019385D02*
X033629Y019385D01*
X033629Y019434D02*
X033353Y019434D01*
X028432Y018944D02*
X028432Y018629D01*
X027960Y018629D01*
X027960Y019456D01*
X028235Y019456D01*
X028235Y018944D01*
X028432Y018944D01*
X028432Y018900D02*
X027960Y018900D01*
X027960Y018852D02*
X028432Y018852D01*
X028432Y018803D02*
X027960Y018803D01*
X027960Y018755D02*
X028432Y018755D01*
X028432Y018706D02*
X027960Y018706D01*
X027960Y018658D02*
X028432Y018658D01*
X028235Y018949D02*
X027960Y018949D01*
X027960Y018997D02*
X028235Y018997D01*
X028235Y019046D02*
X027960Y019046D01*
X027960Y019094D02*
X028235Y019094D01*
X028235Y019143D02*
X027960Y019143D01*
X027960Y019191D02*
X028235Y019191D01*
X028235Y019240D02*
X027960Y019240D01*
X027960Y019288D02*
X028235Y019288D01*
X028235Y019337D02*
X027960Y019337D01*
X027960Y019385D02*
X028235Y019385D01*
X028235Y019434D02*
X027960Y019434D01*
X027723Y019434D02*
X027448Y019434D01*
X027448Y019456D02*
X027723Y019456D01*
X027723Y018629D01*
X027212Y018629D01*
X027212Y018944D01*
X027448Y018944D01*
X027448Y019456D01*
X027448Y019385D02*
X027723Y019385D01*
X027723Y019337D02*
X027448Y019337D01*
X027448Y019288D02*
X027723Y019288D01*
X027723Y019240D02*
X027448Y019240D01*
X027448Y019191D02*
X027723Y019191D01*
X027723Y019143D02*
X027448Y019143D01*
X027448Y019094D02*
X027723Y019094D01*
X027723Y019046D02*
X027448Y019046D01*
X027448Y018997D02*
X027723Y018997D01*
X027723Y018949D02*
X027448Y018949D01*
X027212Y018900D02*
X027723Y018900D01*
X027723Y018852D02*
X027212Y018852D01*
X027212Y018803D02*
X027723Y018803D01*
X027723Y018755D02*
X027212Y018755D01*
X027212Y018706D02*
X027723Y018706D01*
X027723Y018658D02*
X027212Y018658D01*
X022527Y018658D02*
X022054Y018658D01*
X022054Y018629D02*
X022527Y018629D01*
X022527Y018944D01*
X022330Y018944D01*
X022330Y019456D01*
X022054Y019456D01*
X022054Y018629D01*
X022054Y018706D02*
X022527Y018706D01*
X022527Y018755D02*
X022054Y018755D01*
X022054Y018803D02*
X022527Y018803D01*
X022527Y018852D02*
X022054Y018852D01*
X022054Y018900D02*
X022527Y018900D01*
X022330Y018949D02*
X022054Y018949D01*
X022054Y018997D02*
X022330Y018997D01*
X022330Y019046D02*
X022054Y019046D01*
X022054Y019094D02*
X022330Y019094D01*
X022330Y019143D02*
X022054Y019143D01*
X022054Y019191D02*
X022330Y019191D01*
X022330Y019240D02*
X022054Y019240D01*
X022054Y019288D02*
X022330Y019288D01*
X022330Y019337D02*
X022054Y019337D01*
X022054Y019385D02*
X022330Y019385D01*
X022330Y019434D02*
X022054Y019434D01*
X021818Y019434D02*
X021542Y019434D01*
X021542Y019456D02*
X021818Y019456D01*
X021818Y018629D01*
X021306Y018629D01*
X021306Y018944D01*
X021542Y018944D01*
X021542Y019456D01*
X021542Y019385D02*
X021818Y019385D01*
X021818Y019337D02*
X021542Y019337D01*
X021542Y019288D02*
X021818Y019288D01*
X021818Y019240D02*
X021542Y019240D01*
X021542Y019191D02*
X021818Y019191D01*
X021818Y019143D02*
X021542Y019143D01*
X021542Y019094D02*
X021818Y019094D01*
X021818Y019046D02*
X021542Y019046D01*
X021542Y018997D02*
X021818Y018997D01*
X021818Y018949D02*
X021542Y018949D01*
X021306Y018900D02*
X021818Y018900D01*
X021818Y018852D02*
X021306Y018852D01*
X021306Y018803D02*
X021818Y018803D01*
X021818Y018755D02*
X021306Y018755D01*
X021306Y018706D02*
X021818Y018706D01*
X021818Y018658D02*
X021306Y018658D01*
X016621Y018658D02*
X016149Y018658D01*
X016149Y018629D02*
X016621Y018629D01*
X016621Y018944D01*
X016424Y018944D01*
X016424Y019456D01*
X016149Y019456D01*
X016149Y018629D01*
X016149Y018706D02*
X016621Y018706D01*
X016621Y018755D02*
X016149Y018755D01*
X016149Y018803D02*
X016621Y018803D01*
X016621Y018852D02*
X016149Y018852D01*
X016149Y018900D02*
X016621Y018900D01*
X016424Y018949D02*
X016149Y018949D01*
X016149Y018997D02*
X016424Y018997D01*
X016424Y019046D02*
X016149Y019046D01*
X016149Y019094D02*
X016424Y019094D01*
X016424Y019143D02*
X016149Y019143D01*
X016149Y019191D02*
X016424Y019191D01*
X016424Y019240D02*
X016149Y019240D01*
X016149Y019288D02*
X016424Y019288D01*
X016424Y019337D02*
X016149Y019337D01*
X016149Y019385D02*
X016424Y019385D01*
X016424Y019434D02*
X016149Y019434D01*
X015912Y019434D02*
X015637Y019434D01*
X015637Y019456D02*
X015912Y019456D01*
X015912Y018629D01*
X015401Y018629D01*
X015401Y018944D01*
X015637Y018944D01*
X015637Y019456D01*
X015637Y019385D02*
X015912Y019385D01*
X015912Y019337D02*
X015637Y019337D01*
X015637Y019288D02*
X015912Y019288D01*
X015912Y019240D02*
X015637Y019240D01*
X015637Y019191D02*
X015912Y019191D01*
X015912Y019143D02*
X015637Y019143D01*
X015637Y019094D02*
X015912Y019094D01*
X015912Y019046D02*
X015637Y019046D01*
X015637Y018997D02*
X015912Y018997D01*
X015912Y018949D02*
X015637Y018949D01*
X015401Y018900D02*
X015912Y018900D01*
X015912Y018852D02*
X015401Y018852D01*
X015401Y018803D02*
X015912Y018803D01*
X015912Y018755D02*
X015401Y018755D01*
X015401Y018706D02*
X015912Y018706D01*
X015912Y018658D02*
X015401Y018658D01*
X010912Y018658D02*
X010440Y018658D01*
X010440Y018629D02*
X010912Y018629D01*
X010912Y018944D01*
X010716Y018944D01*
X010716Y019456D01*
X010440Y019456D01*
X010440Y018629D01*
X010440Y018706D02*
X010912Y018706D01*
X010912Y018755D02*
X010440Y018755D01*
X010440Y018803D02*
X010912Y018803D01*
X010912Y018852D02*
X010440Y018852D01*
X010440Y018900D02*
X010912Y018900D01*
X010716Y018949D02*
X010440Y018949D01*
X010440Y018997D02*
X010716Y018997D01*
X010716Y019046D02*
X010440Y019046D01*
X010440Y019094D02*
X010716Y019094D01*
X010716Y019143D02*
X010440Y019143D01*
X010440Y019191D02*
X010716Y019191D01*
X010716Y019240D02*
X010440Y019240D01*
X010440Y019288D02*
X010716Y019288D01*
X010716Y019337D02*
X010440Y019337D01*
X010440Y019385D02*
X010716Y019385D01*
X010716Y019434D02*
X010440Y019434D01*
X010204Y019434D02*
X009928Y019434D01*
X009928Y019456D02*
X010204Y019456D01*
X010204Y018629D01*
X009692Y018629D01*
X009692Y018944D01*
X009928Y018944D01*
X009928Y019456D01*
X009928Y019385D02*
X010204Y019385D01*
X010204Y019337D02*
X009928Y019337D01*
X009928Y019288D02*
X010204Y019288D01*
X010204Y019240D02*
X009928Y019240D01*
X009928Y019191D02*
X010204Y019191D01*
X010204Y019143D02*
X009928Y019143D01*
X009928Y019094D02*
X010204Y019094D01*
X010204Y019046D02*
X009928Y019046D01*
X009928Y018997D02*
X010204Y018997D01*
X010204Y018949D02*
X009928Y018949D01*
X009692Y018900D02*
X010204Y018900D01*
X010204Y018852D02*
X009692Y018852D01*
X009692Y018803D02*
X010204Y018803D01*
X010204Y018755D02*
X009692Y018755D01*
X009692Y018706D02*
X010204Y018706D01*
X010204Y018658D02*
X009692Y018658D01*
X005007Y018658D02*
X004534Y018658D01*
X004534Y018629D02*
X005007Y018629D01*
X005007Y018944D01*
X004810Y018944D01*
X004810Y019456D01*
X004534Y019456D01*
X004534Y018629D01*
X004534Y018706D02*
X005007Y018706D01*
X005007Y018755D02*
X004534Y018755D01*
X004534Y018803D02*
X005007Y018803D01*
X005007Y018852D02*
X004534Y018852D01*
X004534Y018900D02*
X005007Y018900D01*
X004810Y018949D02*
X004534Y018949D01*
X004534Y018997D02*
X004810Y018997D01*
X004810Y019046D02*
X004534Y019046D01*
X004534Y019094D02*
X004810Y019094D01*
X004810Y019143D02*
X004534Y019143D01*
X004534Y019191D02*
X004810Y019191D01*
X004810Y019240D02*
X004534Y019240D01*
X004534Y019288D02*
X004810Y019288D01*
X004810Y019337D02*
X004534Y019337D01*
X004534Y019385D02*
X004810Y019385D01*
X004810Y019434D02*
X004534Y019434D01*
X004298Y019434D02*
X004023Y019434D01*
X004023Y019456D02*
X004298Y019456D01*
X004298Y018629D01*
X003786Y018629D01*
X003786Y018944D01*
X004023Y018944D01*
X004023Y019456D01*
X004023Y019385D02*
X004298Y019385D01*
X004298Y019337D02*
X004023Y019337D01*
X004023Y019288D02*
X004298Y019288D01*
X004298Y019240D02*
X004023Y019240D01*
X004023Y019191D02*
X004298Y019191D01*
X004298Y019143D02*
X004023Y019143D01*
X004023Y019094D02*
X004298Y019094D01*
X004298Y019046D02*
X004023Y019046D01*
X004023Y018997D02*
X004298Y018997D01*
X004298Y018949D02*
X004023Y018949D01*
X003786Y018900D02*
X004298Y018900D01*
X004298Y018852D02*
X003786Y018852D01*
X003786Y018803D02*
X004298Y018803D01*
X004298Y018755D02*
X003786Y018755D01*
X003786Y018706D02*
X004298Y018706D01*
X004298Y018658D02*
X003786Y018658D01*
X004023Y012566D02*
X004298Y012566D01*
X004298Y011739D01*
X003786Y011739D01*
X003786Y012054D01*
X004023Y012054D01*
X004023Y012566D01*
X004023Y012547D02*
X004298Y012547D01*
X004298Y012498D02*
X004023Y012498D01*
X004023Y012450D02*
X004298Y012450D01*
X004298Y012401D02*
X004023Y012401D01*
X004023Y012353D02*
X004298Y012353D01*
X004298Y012304D02*
X004023Y012304D01*
X004023Y012256D02*
X004298Y012256D01*
X004298Y012207D02*
X004023Y012207D01*
X004023Y012159D02*
X004298Y012159D01*
X004298Y012110D02*
X004023Y012110D01*
X004023Y012062D02*
X004298Y012062D01*
X004298Y012013D02*
X003786Y012013D01*
X003786Y011965D02*
X004298Y011965D01*
X004298Y011916D02*
X003786Y011916D01*
X003786Y011868D02*
X004298Y011868D01*
X004298Y011819D02*
X003786Y011819D01*
X003786Y011771D02*
X004298Y011771D01*
X004534Y011771D02*
X005007Y011771D01*
X005007Y011739D02*
X005007Y012054D01*
X004810Y012054D01*
X004810Y012566D01*
X004534Y012566D01*
X004534Y011739D01*
X005007Y011739D01*
X005007Y011819D02*
X004534Y011819D01*
X004534Y011868D02*
X005007Y011868D01*
X005007Y011916D02*
X004534Y011916D01*
X004534Y011965D02*
X005007Y011965D01*
X005007Y012013D02*
X004534Y012013D01*
X004534Y012062D02*
X004810Y012062D01*
X004810Y012110D02*
X004534Y012110D01*
X004534Y012159D02*
X004810Y012159D01*
X004810Y012207D02*
X004534Y012207D01*
X004534Y012256D02*
X004810Y012256D01*
X004810Y012304D02*
X004534Y012304D01*
X004534Y012353D02*
X004810Y012353D01*
X004810Y012401D02*
X004534Y012401D01*
X004534Y012450D02*
X004810Y012450D01*
X004810Y012498D02*
X004534Y012498D01*
X004534Y012547D02*
X004810Y012547D01*
X009692Y012054D02*
X009692Y011739D01*
X010204Y011739D01*
X010204Y012566D01*
X009928Y012566D01*
X009928Y012054D01*
X009692Y012054D01*
X009692Y012013D02*
X010204Y012013D01*
X010204Y011965D02*
X009692Y011965D01*
X009692Y011916D02*
X010204Y011916D01*
X010204Y011868D02*
X009692Y011868D01*
X009692Y011819D02*
X010204Y011819D01*
X010204Y011771D02*
X009692Y011771D01*
X009928Y012062D02*
X010204Y012062D01*
X010204Y012110D02*
X009928Y012110D01*
X009928Y012159D02*
X010204Y012159D01*
X010204Y012207D02*
X009928Y012207D01*
X009928Y012256D02*
X010204Y012256D01*
X010204Y012304D02*
X009928Y012304D01*
X009928Y012353D02*
X010204Y012353D01*
X010204Y012401D02*
X009928Y012401D01*
X009928Y012450D02*
X010204Y012450D01*
X010204Y012498D02*
X009928Y012498D01*
X009928Y012547D02*
X010204Y012547D01*
X010440Y012547D02*
X010716Y012547D01*
X010716Y012566D02*
X010716Y012054D01*
X010912Y012054D01*
X010912Y011739D01*
X010440Y011739D01*
X010440Y012566D01*
X010716Y012566D01*
X010716Y012498D02*
X010440Y012498D01*
X010440Y012450D02*
X010716Y012450D01*
X010716Y012401D02*
X010440Y012401D01*
X010440Y012353D02*
X010716Y012353D01*
X010716Y012304D02*
X010440Y012304D01*
X010440Y012256D02*
X010716Y012256D01*
X010716Y012207D02*
X010440Y012207D01*
X010440Y012159D02*
X010716Y012159D01*
X010716Y012110D02*
X010440Y012110D01*
X010440Y012062D02*
X010716Y012062D01*
X010912Y012013D02*
X010440Y012013D01*
X010440Y011965D02*
X010912Y011965D01*
X010912Y011916D02*
X010440Y011916D01*
X010440Y011868D02*
X010912Y011868D01*
X010912Y011819D02*
X010440Y011819D01*
X010440Y011771D02*
X010912Y011771D01*
X015401Y011771D02*
X015912Y011771D01*
X015912Y011739D02*
X015401Y011739D01*
X015401Y012054D01*
X015637Y012054D01*
X015637Y012566D01*
X015912Y012566D01*
X015912Y011739D01*
X015912Y011819D02*
X015401Y011819D01*
X015401Y011868D02*
X015912Y011868D01*
X015912Y011916D02*
X015401Y011916D01*
X015401Y011965D02*
X015912Y011965D01*
X015912Y012013D02*
X015401Y012013D01*
X015637Y012062D02*
X015912Y012062D01*
X015912Y012110D02*
X015637Y012110D01*
X015637Y012159D02*
X015912Y012159D01*
X015912Y012207D02*
X015637Y012207D01*
X015637Y012256D02*
X015912Y012256D01*
X015912Y012304D02*
X015637Y012304D01*
X015637Y012353D02*
X015912Y012353D01*
X015912Y012401D02*
X015637Y012401D01*
X015637Y012450D02*
X015912Y012450D01*
X015912Y012498D02*
X015637Y012498D01*
X015637Y012547D02*
X015912Y012547D01*
X016149Y012547D02*
X016424Y012547D01*
X016424Y012566D02*
X016424Y012054D01*
X016621Y012054D01*
X016621Y011739D01*
X016149Y011739D01*
X016149Y012566D01*
X016424Y012566D01*
X016424Y012498D02*
X016149Y012498D01*
X016149Y012450D02*
X016424Y012450D01*
X016424Y012401D02*
X016149Y012401D01*
X016149Y012353D02*
X016424Y012353D01*
X016424Y012304D02*
X016149Y012304D01*
X016149Y012256D02*
X016424Y012256D01*
X016424Y012207D02*
X016149Y012207D01*
X016149Y012159D02*
X016424Y012159D01*
X016424Y012110D02*
X016149Y012110D01*
X016149Y012062D02*
X016424Y012062D01*
X016621Y012013D02*
X016149Y012013D01*
X016149Y011965D02*
X016621Y011965D01*
X016621Y011916D02*
X016149Y011916D01*
X016149Y011868D02*
X016621Y011868D01*
X016621Y011819D02*
X016149Y011819D01*
X016149Y011771D02*
X016621Y011771D01*
X021306Y011771D02*
X021818Y011771D01*
X021818Y011739D02*
X021306Y011739D01*
X021306Y012054D01*
X021542Y012054D01*
X021542Y012566D01*
X021818Y012566D01*
X021818Y011739D01*
X021818Y011819D02*
X021306Y011819D01*
X021306Y011868D02*
X021818Y011868D01*
X021818Y011916D02*
X021306Y011916D01*
X021306Y011965D02*
X021818Y011965D01*
X021818Y012013D02*
X021306Y012013D01*
X021542Y012062D02*
X021818Y012062D01*
X021818Y012110D02*
X021542Y012110D01*
X021542Y012159D02*
X021818Y012159D01*
X021818Y012207D02*
X021542Y012207D01*
X021542Y012256D02*
X021818Y012256D01*
X021818Y012304D02*
X021542Y012304D01*
X021542Y012353D02*
X021818Y012353D01*
X021818Y012401D02*
X021542Y012401D01*
X021542Y012450D02*
X021818Y012450D01*
X021818Y012498D02*
X021542Y012498D01*
X021542Y012547D02*
X021818Y012547D01*
X022054Y012547D02*
X022330Y012547D01*
X022330Y012566D02*
X022054Y012566D01*
X022054Y011739D01*
X022527Y011739D01*
X022527Y012054D01*
X022330Y012054D01*
X022330Y012566D01*
X022330Y012498D02*
X022054Y012498D01*
X022054Y012450D02*
X022330Y012450D01*
X022330Y012401D02*
X022054Y012401D01*
X022054Y012353D02*
X022330Y012353D01*
X022330Y012304D02*
X022054Y012304D01*
X022054Y012256D02*
X022330Y012256D01*
X022330Y012207D02*
X022054Y012207D01*
X022054Y012159D02*
X022330Y012159D01*
X022330Y012110D02*
X022054Y012110D01*
X022054Y012062D02*
X022330Y012062D01*
X022527Y012013D02*
X022054Y012013D01*
X022054Y011965D02*
X022527Y011965D01*
X022527Y011916D02*
X022054Y011916D01*
X022054Y011868D02*
X022527Y011868D01*
X022527Y011819D02*
X022054Y011819D01*
X022054Y011771D02*
X022527Y011771D01*
X027212Y011771D02*
X027723Y011771D01*
X027723Y011739D02*
X027212Y011739D01*
X027212Y012054D01*
X027448Y012054D01*
X027448Y012566D01*
X027723Y012566D01*
X027723Y011739D01*
X027723Y011819D02*
X027212Y011819D01*
X027212Y011868D02*
X027723Y011868D01*
X027723Y011916D02*
X027212Y011916D01*
X027212Y011965D02*
X027723Y011965D01*
X027723Y012013D02*
X027212Y012013D01*
X027448Y012062D02*
X027723Y012062D01*
X027723Y012110D02*
X027448Y012110D01*
X027448Y012159D02*
X027723Y012159D01*
X027723Y012207D02*
X027448Y012207D01*
X027448Y012256D02*
X027723Y012256D01*
X027723Y012304D02*
X027448Y012304D01*
X027448Y012353D02*
X027723Y012353D01*
X027723Y012401D02*
X027448Y012401D01*
X027448Y012450D02*
X027723Y012450D01*
X027723Y012498D02*
X027448Y012498D01*
X027448Y012547D02*
X027723Y012547D01*
X027960Y012547D02*
X028235Y012547D01*
X028235Y012566D02*
X027960Y012566D01*
X027960Y011739D01*
X028432Y011739D01*
X028432Y012054D01*
X028235Y012054D01*
X028235Y012566D01*
X028235Y012498D02*
X027960Y012498D01*
X027960Y012450D02*
X028235Y012450D01*
X028235Y012401D02*
X027960Y012401D01*
X027960Y012353D02*
X028235Y012353D01*
X028235Y012304D02*
X027960Y012304D01*
X027960Y012256D02*
X028235Y012256D01*
X028235Y012207D02*
X027960Y012207D01*
X027960Y012159D02*
X028235Y012159D01*
X028235Y012110D02*
X027960Y012110D01*
X027960Y012062D02*
X028235Y012062D01*
X028432Y012013D02*
X027960Y012013D01*
X027960Y011965D02*
X028432Y011965D01*
X028432Y011916D02*
X027960Y011916D01*
X027960Y011868D02*
X028432Y011868D01*
X028432Y011819D02*
X027960Y011819D01*
X027960Y011771D02*
X028432Y011771D01*
X033117Y011771D02*
X033629Y011771D01*
X033629Y011739D02*
X033117Y011739D01*
X033117Y012054D01*
X033353Y012054D01*
X033353Y012566D01*
X033629Y012566D01*
X033629Y011739D01*
X033629Y011819D02*
X033117Y011819D01*
X033117Y011868D02*
X033629Y011868D01*
X033629Y011916D02*
X033117Y011916D01*
X033117Y011965D02*
X033629Y011965D01*
X033629Y012013D02*
X033117Y012013D01*
X033353Y012062D02*
X033629Y012062D01*
X033629Y012110D02*
X033353Y012110D01*
X033353Y012159D02*
X033629Y012159D01*
X033629Y012207D02*
X033353Y012207D01*
X033353Y012256D02*
X033629Y012256D01*
X033629Y012304D02*
X033353Y012304D01*
X033353Y012353D02*
X033629Y012353D01*
X033629Y012401D02*
X033353Y012401D01*
X033353Y012450D02*
X033629Y012450D01*
X033629Y012498D02*
X033353Y012498D01*
X033353Y012547D02*
X033629Y012547D01*
X033865Y012547D02*
X034141Y012547D01*
X034141Y012566D02*
X033865Y012566D01*
X033865Y011739D01*
X034338Y011739D01*
X034338Y012054D01*
X034141Y012054D01*
X034141Y012566D01*
X034141Y012498D02*
X033865Y012498D01*
X033865Y012450D02*
X034141Y012450D01*
X034141Y012401D02*
X033865Y012401D01*
X033865Y012353D02*
X034141Y012353D01*
X034141Y012304D02*
X033865Y012304D01*
X033865Y012256D02*
X034141Y012256D01*
X034141Y012207D02*
X033865Y012207D01*
X033865Y012159D02*
X034141Y012159D01*
X034141Y012110D02*
X033865Y012110D01*
X033865Y012062D02*
X034141Y012062D01*
X034338Y012013D02*
X033865Y012013D01*
X033865Y011965D02*
X034338Y011965D01*
X034338Y011916D02*
X033865Y011916D01*
X033865Y011868D02*
X034338Y011868D01*
X034338Y011819D02*
X033865Y011819D01*
X033865Y011771D02*
X034338Y011771D01*
X034141Y005873D02*
X033865Y005873D01*
X033865Y005046D01*
X034338Y005046D01*
X034338Y005361D01*
X034141Y005361D01*
X034141Y005873D01*
X034141Y005854D02*
X033865Y005854D01*
X033865Y005805D02*
X034141Y005805D01*
X034141Y005757D02*
X033865Y005757D01*
X033865Y005708D02*
X034141Y005708D01*
X034141Y005660D02*
X033865Y005660D01*
X033865Y005611D02*
X034141Y005611D01*
X034141Y005563D02*
X033865Y005563D01*
X033865Y005514D02*
X034141Y005514D01*
X034141Y005466D02*
X033865Y005466D01*
X033865Y005417D02*
X034141Y005417D01*
X034141Y005369D02*
X033865Y005369D01*
X033865Y005320D02*
X034338Y005320D01*
X034338Y005272D02*
X033865Y005272D01*
X033865Y005223D02*
X034338Y005223D01*
X034338Y005175D02*
X033865Y005175D01*
X033865Y005126D02*
X034338Y005126D01*
X034338Y005078D02*
X033865Y005078D01*
X033629Y005078D02*
X033117Y005078D01*
X033117Y005046D02*
X033117Y005361D01*
X033353Y005361D01*
X033353Y005873D01*
X033629Y005873D01*
X033629Y005046D01*
X033117Y005046D01*
X033117Y005126D02*
X033629Y005126D01*
X033629Y005175D02*
X033117Y005175D01*
X033117Y005223D02*
X033629Y005223D01*
X033629Y005272D02*
X033117Y005272D01*
X033117Y005320D02*
X033629Y005320D01*
X033629Y005369D02*
X033353Y005369D01*
X033353Y005417D02*
X033629Y005417D01*
X033629Y005466D02*
X033353Y005466D01*
X033353Y005514D02*
X033629Y005514D01*
X033629Y005563D02*
X033353Y005563D01*
X033353Y005611D02*
X033629Y005611D01*
X033629Y005660D02*
X033353Y005660D01*
X033353Y005708D02*
X033629Y005708D01*
X033629Y005757D02*
X033353Y005757D01*
X033353Y005805D02*
X033629Y005805D01*
X033629Y005854D02*
X033353Y005854D01*
X028432Y005361D02*
X028432Y005046D01*
X027960Y005046D01*
X027960Y005873D01*
X028235Y005873D01*
X028235Y005361D01*
X028432Y005361D01*
X028432Y005320D02*
X027960Y005320D01*
X027960Y005272D02*
X028432Y005272D01*
X028432Y005223D02*
X027960Y005223D01*
X027960Y005175D02*
X028432Y005175D01*
X028432Y005126D02*
X027960Y005126D01*
X027960Y005078D02*
X028432Y005078D01*
X028235Y005369D02*
X027960Y005369D01*
X027960Y005417D02*
X028235Y005417D01*
X028235Y005466D02*
X027960Y005466D01*
X027960Y005514D02*
X028235Y005514D01*
X028235Y005563D02*
X027960Y005563D01*
X027960Y005611D02*
X028235Y005611D01*
X028235Y005660D02*
X027960Y005660D01*
X027960Y005708D02*
X028235Y005708D01*
X028235Y005757D02*
X027960Y005757D01*
X027960Y005805D02*
X028235Y005805D01*
X028235Y005854D02*
X027960Y005854D01*
X027723Y005854D02*
X027448Y005854D01*
X027448Y005873D02*
X027723Y005873D01*
X027723Y005046D01*
X027212Y005046D01*
X027212Y005361D01*
X027448Y005361D01*
X027448Y005873D01*
X027448Y005805D02*
X027723Y005805D01*
X027723Y005757D02*
X027448Y005757D01*
X027448Y005708D02*
X027723Y005708D01*
X027723Y005660D02*
X027448Y005660D01*
X027448Y005611D02*
X027723Y005611D01*
X027723Y005563D02*
X027448Y005563D01*
X027448Y005514D02*
X027723Y005514D01*
X027723Y005466D02*
X027448Y005466D01*
X027448Y005417D02*
X027723Y005417D01*
X027723Y005369D02*
X027448Y005369D01*
X027212Y005320D02*
X027723Y005320D01*
X027723Y005272D02*
X027212Y005272D01*
X027212Y005223D02*
X027723Y005223D01*
X027723Y005175D02*
X027212Y005175D01*
X027212Y005126D02*
X027723Y005126D01*
X027723Y005078D02*
X027212Y005078D01*
X022527Y005078D02*
X022054Y005078D01*
X022054Y005046D02*
X022527Y005046D01*
X022527Y005361D01*
X022330Y005361D01*
X022330Y005873D01*
X022054Y005873D01*
X022054Y005046D01*
X022054Y005126D02*
X022527Y005126D01*
X022527Y005175D02*
X022054Y005175D01*
X022054Y005223D02*
X022527Y005223D01*
X022527Y005272D02*
X022054Y005272D01*
X022054Y005320D02*
X022527Y005320D01*
X022330Y005369D02*
X022054Y005369D01*
X022054Y005417D02*
X022330Y005417D01*
X022330Y005466D02*
X022054Y005466D01*
X022054Y005514D02*
X022330Y005514D01*
X022330Y005563D02*
X022054Y005563D01*
X022054Y005611D02*
X022330Y005611D01*
X022330Y005660D02*
X022054Y005660D01*
X022054Y005708D02*
X022330Y005708D01*
X022330Y005757D02*
X022054Y005757D01*
X022054Y005805D02*
X022330Y005805D01*
X022330Y005854D02*
X022054Y005854D01*
X021818Y005854D02*
X021542Y005854D01*
X021542Y005873D02*
X021818Y005873D01*
X021818Y005046D01*
X021306Y005046D01*
X021306Y005361D01*
X021542Y005361D01*
X021542Y005873D01*
X021542Y005805D02*
X021818Y005805D01*
X021818Y005757D02*
X021542Y005757D01*
X021542Y005708D02*
X021818Y005708D01*
X021818Y005660D02*
X021542Y005660D01*
X021542Y005611D02*
X021818Y005611D01*
X021818Y005563D02*
X021542Y005563D01*
X021542Y005514D02*
X021818Y005514D01*
X021818Y005466D02*
X021542Y005466D01*
X021542Y005417D02*
X021818Y005417D01*
X021818Y005369D02*
X021542Y005369D01*
X021306Y005320D02*
X021818Y005320D01*
X021818Y005272D02*
X021306Y005272D01*
X021306Y005223D02*
X021818Y005223D01*
X021818Y005175D02*
X021306Y005175D01*
X021306Y005126D02*
X021818Y005126D01*
X021818Y005078D02*
X021306Y005078D01*
X016621Y005078D02*
X016149Y005078D01*
X016149Y005046D02*
X016621Y005046D01*
X016621Y005361D01*
X016424Y005361D01*
X016424Y005873D01*
X016149Y005873D01*
X016149Y005046D01*
X016149Y005126D02*
X016621Y005126D01*
X016621Y005175D02*
X016149Y005175D01*
X016149Y005223D02*
X016621Y005223D01*
X016621Y005272D02*
X016149Y005272D01*
X016149Y005320D02*
X016621Y005320D01*
X016424Y005369D02*
X016149Y005369D01*
X016149Y005417D02*
X016424Y005417D01*
X016424Y005466D02*
X016149Y005466D01*
X016149Y005514D02*
X016424Y005514D01*
X016424Y005563D02*
X016149Y005563D01*
X016149Y005611D02*
X016424Y005611D01*
X016424Y005660D02*
X016149Y005660D01*
X016149Y005708D02*
X016424Y005708D01*
X016424Y005757D02*
X016149Y005757D01*
X016149Y005805D02*
X016424Y005805D01*
X016424Y005854D02*
X016149Y005854D01*
X015912Y005854D02*
X015637Y005854D01*
X015637Y005873D02*
X015912Y005873D01*
X015912Y005046D01*
X015401Y005046D01*
X015401Y005361D01*
X015637Y005361D01*
X015637Y005873D01*
X015637Y005805D02*
X015912Y005805D01*
X015912Y005757D02*
X015637Y005757D01*
X015637Y005708D02*
X015912Y005708D01*
X015912Y005660D02*
X015637Y005660D01*
X015637Y005611D02*
X015912Y005611D01*
X015912Y005563D02*
X015637Y005563D01*
X015637Y005514D02*
X015912Y005514D01*
X015912Y005466D02*
X015637Y005466D01*
X015637Y005417D02*
X015912Y005417D01*
X015912Y005369D02*
X015637Y005369D01*
X015401Y005320D02*
X015912Y005320D01*
X015912Y005272D02*
X015401Y005272D01*
X015401Y005223D02*
X015912Y005223D01*
X015912Y005175D02*
X015401Y005175D01*
X015401Y005126D02*
X015912Y005126D01*
X015912Y005078D02*
X015401Y005078D01*
X010912Y005078D02*
X010440Y005078D01*
X010440Y005046D02*
X010912Y005046D01*
X010912Y005361D01*
X010716Y005361D01*
X010716Y005873D01*
X010440Y005873D01*
X010440Y005046D01*
X010440Y005126D02*
X010912Y005126D01*
X010912Y005175D02*
X010440Y005175D01*
X010440Y005223D02*
X010912Y005223D01*
X010912Y005272D02*
X010440Y005272D01*
X010440Y005320D02*
X010912Y005320D01*
X010716Y005369D02*
X010440Y005369D01*
X010440Y005417D02*
X010716Y005417D01*
X010716Y005466D02*
X010440Y005466D01*
X010440Y005514D02*
X010716Y005514D01*
X010716Y005563D02*
X010440Y005563D01*
X010440Y005611D02*
X010716Y005611D01*
X010716Y005660D02*
X010440Y005660D01*
X010440Y005708D02*
X010716Y005708D01*
X010716Y005757D02*
X010440Y005757D01*
X010440Y005805D02*
X010716Y005805D01*
X010716Y005854D02*
X010440Y005854D01*
X010204Y005854D02*
X009928Y005854D01*
X009928Y005873D02*
X010204Y005873D01*
X010204Y005046D01*
X009692Y005046D01*
X009692Y005361D01*
X009928Y005361D01*
X009928Y005873D01*
X009928Y005805D02*
X010204Y005805D01*
X010204Y005757D02*
X009928Y005757D01*
X009928Y005708D02*
X010204Y005708D01*
X010204Y005660D02*
X009928Y005660D01*
X009928Y005611D02*
X010204Y005611D01*
X010204Y005563D02*
X009928Y005563D01*
X009928Y005514D02*
X010204Y005514D01*
X010204Y005466D02*
X009928Y005466D01*
X009928Y005417D02*
X010204Y005417D01*
X010204Y005369D02*
X009928Y005369D01*
X009692Y005320D02*
X010204Y005320D01*
X010204Y005272D02*
X009692Y005272D01*
X009692Y005223D02*
X010204Y005223D01*
X010204Y005175D02*
X009692Y005175D01*
X009692Y005126D02*
X010204Y005126D01*
X010204Y005078D02*
X009692Y005078D01*
X005007Y005078D02*
X004534Y005078D01*
X004534Y005046D02*
X005007Y005046D01*
X005007Y005361D01*
X004810Y005361D01*
X004810Y005873D01*
X004534Y005873D01*
X004534Y005046D01*
X004534Y005126D02*
X005007Y005126D01*
X005007Y005175D02*
X004534Y005175D01*
X004534Y005223D02*
X005007Y005223D01*
X005007Y005272D02*
X004534Y005272D01*
X004534Y005320D02*
X005007Y005320D01*
X004810Y005369D02*
X004534Y005369D01*
X004534Y005417D02*
X004810Y005417D01*
X004810Y005466D02*
X004534Y005466D01*
X004534Y005514D02*
X004810Y005514D01*
X004810Y005563D02*
X004534Y005563D01*
X004534Y005611D02*
X004810Y005611D01*
X004810Y005660D02*
X004534Y005660D01*
X004534Y005708D02*
X004810Y005708D01*
X004810Y005757D02*
X004534Y005757D01*
X004534Y005805D02*
X004810Y005805D01*
X004810Y005854D02*
X004534Y005854D01*
X004298Y005854D02*
X004023Y005854D01*
X004023Y005873D02*
X004298Y005873D01*
X004298Y005046D01*
X003786Y005046D01*
X003786Y005361D01*
X004023Y005361D01*
X004023Y005873D01*
X004023Y005805D02*
X004298Y005805D01*
X004298Y005757D02*
X004023Y005757D01*
X004023Y005708D02*
X004298Y005708D01*
X004298Y005660D02*
X004023Y005660D01*
X004023Y005611D02*
X004298Y005611D01*
X004298Y005563D02*
X004023Y005563D01*
X004023Y005514D02*
X004298Y005514D01*
X004298Y005466D02*
X004023Y005466D01*
X004023Y005417D02*
X004298Y005417D01*
X004298Y005369D02*
X004023Y005369D01*
X003786Y005320D02*
X004298Y005320D01*
X004298Y005272D02*
X003786Y005272D01*
X003786Y005223D02*
X004298Y005223D01*
X004298Y005175D02*
X003786Y005175D01*
X003786Y005126D02*
X004298Y005126D01*
X004298Y005078D02*
X003786Y005078D01*
D12*
X004377Y004062D03*
X010282Y004062D03*
X015991Y004062D03*
X021897Y004062D03*
X027802Y004062D03*
X033708Y004062D03*
X033708Y010755D03*
X027802Y010755D03*
X021897Y010755D03*
X015991Y010755D03*
X010282Y010755D03*
X004377Y010755D03*
X004377Y017645D03*
X010282Y017645D03*
X015991Y017645D03*
X021897Y017645D03*
X027802Y017645D03*
X033708Y017645D03*
X033708Y024338D03*
X027802Y024338D03*
X021897Y024338D03*
X015991Y024338D03*
X010282Y024338D03*
X004377Y024338D03*
M02*
